<svg width="276" height="70" viewBox="0 0 276 70" fill="none" xmlns="http://www.w3.org/2000/svg">
<mask id="path-1-outside-1_85_40" maskUnits="userSpaceOnUse" x="-9" y="-9" width="291" height="91" fill="black">
<rect fill="white" x="-9" y="-9" width="291" height="91"/>
<path d="M0.4375 9.34375C2.95833 8.51042 5.32292 7.73958 7.53125 7.03125C9.76042 6.32292 12.1042 5.65625 14.5625 5.03125C17.0208 4.38542 19.375 3.875 21.625 3.5C23.3542 3.20833 25.125 3.0625 26.9375 3.0625C29.9583 3.0625 31.9375 3.14583 32.875 3.3125C34.2917 3.58333 35.625 4.02083 36.875 4.625C38.1458 5.22917 39.2708 6.04167 40.25 7.0625C41.25 8.0625 42.0625 9.25 42.6875 10.625C42.9375 11.1875 43.0625 11.7812 43.0625 12.4062C43.0625 14.7396 41.7812 17.6146 39.2188 21.0312C36.6771 24.4479 34.1146 27.4271 31.5312 29.9688C28.9688 32.5104 27.0521 34.3333 25.7812 35.4375L31.4062 55.1562L23.2188 61.0625L8.875 20.0938C8.83333 20.0938 8.63542 20.2917 8.28125 20.6875C7.92708 21.0833 7.45833 21.6042 6.875 22.25C6.3125 22.875 5.95833 23.2604 5.8125 23.4062C5.75 23.4062 5.54167 22.9583 5.1875 22.0625C4.85417 21.1667 4.39583 19.9271 3.8125 18.3438C3.25 16.7396 2.61458 14.9688 1.90625 13.0312C1.17708 11.0729 0.6875 9.84375 0.4375 9.34375ZM20.6562 18.0312L23.2188 27.25C24.5104 25.9375 26.1146 24.1458 28.0312 21.875C29.9479 19.6042 30.9062 17.9583 30.9062 16.9375C30.9062 16.5417 30.7396 16.3125 30.4062 16.25C29.4688 16.0417 28.5417 15.9375 27.625 15.9375C24.875 15.9375 22.5521 16.6354 20.6562 18.0312ZM66.5312 25.1562C68.0104 25.9479 69.2083 27.0208 70.125 28.375C71.0625 29.7083 71.7396 31.2188 72.1562 32.9062C72.5938 34.5729 72.8125 36.3125 72.8125 38.125C72.8125 39.625 72.6875 41.0729 72.4375 42.4688C72.2083 43.8646 71.8854 45.1458 71.4688 46.3125C71.0521 47.4792 70.5625 48.4688 70 49.2812C68.6875 51.2396 67.2812 52.9271 65.7812 54.3438C64.2812 55.7604 62.75 56.9062 61.1875 57.7812C59.625 58.6354 58.0729 59.2604 56.5312 59.6562C55.0104 60.0729 53.5 60.2812 52 60.2812C50.2292 60.2812 48.5417 60 46.9375 59.4375C45.3542 58.8958 44 58.1771 42.875 57.2812C41.0208 55.7396 39.5729 53.6667 38.5312 51.0625C37.4896 48.4375 36.9688 45.6667 36.9688 42.75C36.9688 37.7292 38.4167 33.6771 41.3125 30.5938C43.7917 27.9479 46.3542 25.9583 49 24.625C51.6458 23.2708 54.3542 22.5938 57.125 22.5938C58.75 22.5938 60.3125 22.8021 61.8125 23.2188C63.3125 23.6146 64.8854 24.2604 66.5312 25.1562ZM64.6875 30.4062C64.3333 31.9896 63.5625 33.3854 62.375 34.5938C61.2083 35.8021 60.0625 36.4062 58.9375 36.4062C58.375 36.4062 57.875 36.2604 57.4375 35.9688C56.8125 35.4688 56.5 34.5938 56.5 33.3438C56.5 32.3854 56.8125 31.4375 57.4375 30.5C58.0833 29.5625 59.0938 28.8229 60.4688 28.2812C59.0938 28.2812 57.7604 28.5417 56.4688 29.0625C55.1979 29.5833 54.1042 30.2604 53.1875 31.0938C52.2708 31.9062 51.5312 32.8333 50.9688 33.875C50.4271 34.8958 50.1562 35.9271 50.1562 36.9688C50.1562 38.9062 51.0521 40.4479 52.8438 41.5938C54.5104 42.6562 56.0938 43.1875 57.5938 43.1875C59.0729 43.1875 60.3854 42.6979 61.5312 41.7188C62.6771 40.7188 63.5521 39.4479 64.1562 37.9062C64.7604 36.3438 65.0625 34.8021 65.0625 33.2812C65.0625 32.2396 64.9375 31.2812 64.6875 30.4062ZM67.625 6.78125L83.5 0.125L85.8125 36.2188L98.875 29.0625L112.438 31.0938L94.75 44.6562L111.406 57.2188L112.156 69.75L87.5938 52.0938L88.375 67.4375L73.5 67.7188L70.6875 13.4375L66.0938 14.4688L67.625 6.78125ZM134.188 41.7188L141.719 50.8125C141.115 52.5625 139.677 54.1667 137.406 55.625C135.156 57.0833 132.469 58.2292 129.344 59.0625C126.24 59.9167 123.135 60.3438 120.031 60.3438C117.281 60.3438 114.823 59.9792 112.656 59.25C110.51 58.5208 108.854 57.4167 107.688 55.9375C105.667 53.3958 104.656 50.1458 104.656 46.1875C104.656 43.0625 105.219 39.9896 106.344 36.9688C107.49 33.9271 108.698 31.8021 109.969 30.5938C111.49 29.1562 113.135 27.9583 114.906 27C116.698 26.0417 118.552 25.3229 120.469 24.8438C122.385 24.3646 124.354 24.125 126.375 24.125C129.021 24.125 131.531 24.5521 133.906 25.4062C136.302 26.2396 138.396 27.4583 140.188 29.0625L123.031 49.5312C124.552 49.5312 125.99 49.2188 127.344 48.5938C128.719 47.9479 129.979 47.0417 131.125 45.875C132.271 44.6875 133.292 43.3021 134.188 41.7188ZM125.531 34.4375C124.51 33.9167 123.469 33.6562 122.406 33.6562C121.281 33.6562 120.188 33.8854 119.125 34.3438C118.083 34.8021 117.344 35.3438 116.906 35.9688C115.615 37.6354 114.969 39.4688 114.969 41.4688C114.969 42.1979 115.042 42.8958 115.188 43.5625C115.333 44.2292 115.583 45.1458 115.938 46.3125L125.531 34.4375ZM165.656 23.1562C171.052 21.4479 175.062 20.5938 177.688 20.5938C179.771 20.5938 181.562 21.0208 183.062 21.875C184.917 22.9375 186.917 24.75 189.062 27.3125C191.208 29.875 192.542 32.25 193.062 34.4375C194.167 38.875 194.719 42.75 194.719 46.0625C194.719 47.8125 194.604 49.6562 194.375 51.5938C194.146 53.5104 193.792 55.9792 193.312 59L180.25 59.7812C180.292 58.7396 180.312 57.2396 180.312 55.2812C180.312 47.1146 179.188 40.1667 176.938 34.4375C176.521 33.4167 176.031 32.6146 175.469 32.0312C174.906 31.4479 174.406 31.1562 173.969 31.1562C173.51 31.1562 173.281 31.4792 173.281 32.125C173.281 32.5 173.323 32.8229 173.406 33.0938C173.552 33.4271 173.698 33.875 173.844 34.4375C174.969 38.9583 175.531 42.8333 175.531 46.0625C175.531 47.6458 175.427 49.3125 175.219 51.0625C175.01 52.7917 174.646 55.4375 174.125 59L161.062 59.7812C161.104 58.7396 161.125 57.2396 161.125 55.2812C161.125 47.0938 159.99 40.1458 157.719 34.4375C157.448 33.7708 157.24 33.0729 157.094 32.3438C156.948 31.5938 156.844 31.2188 156.781 31.2188C156.698 31.2188 156.458 31.7083 156.062 32.6875C155.667 33.6667 155.24 34.6771 154.781 35.7188C154.469 36.4479 154.208 37.2812 154 38.2188C153.812 39.1562 153.667 40.2083 153.562 41.375C153.479 42.5417 153.438 43.9167 153.438 45.5C153.438 48.7083 153.625 52.7812 154 57.7188L138.656 59.5C138.406 57.6667 138.177 55.8438 137.969 54.0312C137.76 52.2188 137.594 50.5417 137.469 49C137.365 47.4375 137.312 45.7604 137.312 43.9688C137.312 43.1979 137.354 42.0833 137.438 40.625L136.875 22.4062L149.156 20.8438L150.938 22.9062C154.229 21.8438 156.917 21.3125 159 21.3125C161.312 21.3125 163.531 21.9271 165.656 23.1562ZM220.156 25.1562C221.635 25.9479 222.833 27.0208 223.75 28.375C224.688 29.7083 225.365 31.2188 225.781 32.9062C226.219 34.5729 226.438 36.3125 226.438 38.125C226.438 39.625 226.312 41.0729 226.062 42.4688C225.833 43.8646 225.51 45.1458 225.094 46.3125C224.677 47.4792 224.188 48.4688 223.625 49.2812C222.312 51.2396 220.906 52.9271 219.406 54.3438C217.906 55.7604 216.375 56.9062 214.812 57.7812C213.25 58.6354 211.698 59.2604 210.156 59.6562C208.635 60.0729 207.125 60.2812 205.625 60.2812C203.854 60.2812 202.167 60 200.562 59.4375C198.979 58.8958 197.625 58.1771 196.5 57.2812C194.646 55.7396 193.198 53.6667 192.156 51.0625C191.115 48.4375 190.594 45.6667 190.594 42.75C190.594 37.7292 192.042 33.6771 194.938 30.5938C197.417 27.9479 199.979 25.9583 202.625 24.625C205.271 23.2708 207.979 22.5938 210.75 22.5938C212.375 22.5938 213.938 22.8021 215.438 23.2188C216.938 23.6146 218.51 24.2604 220.156 25.1562ZM218.312 30.4062C217.958 31.9896 217.188 33.3854 216 34.5938C214.833 35.8021 213.688 36.4062 212.562 36.4062C212 36.4062 211.5 36.2604 211.062 35.9688C210.438 35.4688 210.125 34.5938 210.125 33.3438C210.125 32.3854 210.438 31.4375 211.062 30.5C211.708 29.5625 212.719 28.8229 214.094 28.2812C212.719 28.2812 211.385 28.5417 210.094 29.0625C208.823 29.5833 207.729 30.2604 206.812 31.0938C205.896 31.9062 205.156 32.8333 204.594 33.875C204.052 34.8958 203.781 35.9271 203.781 36.9688C203.781 38.9062 204.677 40.4479 206.469 41.5938C208.135 42.6562 209.719 43.1875 211.219 43.1875C212.698 43.1875 214.01 42.6979 215.156 41.7188C216.302 40.7188 217.177 39.4479 217.781 37.9062C218.385 36.3438 218.688 34.8021 218.688 33.2812C218.688 32.2396 218.562 31.2812 218.312 30.4062ZM237.375 22.9062C239.688 22.1354 241.677 21.5521 243.344 21.1562C245.01 20.7396 246.604 20.5312 248.125 20.5312C250.167 20.5312 251.958 20.9792 253.5 21.875C255.354 22.9375 257.354 24.75 259.5 27.3125C261.646 29.875 262.979 32.25 263.5 34.4375C264.604 38.875 265.156 42.75 265.156 46.0625C265.156 47.8125 265.042 49.6562 264.812 51.5938C264.583 53.5104 264.229 55.9792 263.75 59L250.688 59.7812C250.729 58.7396 250.75 57.2396 250.75 55.2812C250.75 47.1146 249.625 40.1667 247.375 34.4375C246.5 32.2917 245.646 31.2188 244.812 31.2188C243.729 31.2188 242.531 32.7188 241.219 35.7188C240.906 36.4479 240.646 37.2812 240.438 38.2188C240.25 39.1562 240.104 40.2083 240 41.375C239.917 42.5417 239.875 43.9167 239.875 45.5C239.875 48.7083 240.062 52.7812 240.438 57.7188L225.094 59.5C224.844 57.6667 224.615 55.8438 224.406 54.0312C224.198 52.2188 224.031 50.5417 223.906 49C223.802 47.4375 223.75 45.7604 223.75 43.9688C223.75 43.1979 223.792 42.0833 223.875 40.625L223.312 22.4062L235.594 20.8438L237.375 22.9062ZM267.375 45.9375C268.854 45.9375 270.125 46.1875 271.188 46.6875C272.271 47.1667 273.156 47.7604 273.844 48.4688C274.531 49.1562 275 49.7604 275.25 50.2812C275.5 50.8646 275.625 51.4896 275.625 52.1562C275.625 53.1771 275.406 54.2083 274.969 55.25C274.531 56.2708 273.99 57.1771 273.344 57.9688C272.719 58.7396 272.135 59.1667 271.594 59.25C270.469 59.4167 269.656 59.5 269.156 59.5C267.094 59.5 265.438 58.9688 264.188 57.9062C262.958 56.8229 262.229 55.3542 262 53.5C262 51.7083 262.427 50.0417 263.281 48.5C264.156 46.9583 265.521 46.1042 267.375 45.9375Z"/>
</mask>
<path d="M0.4375 9.34375C2.95833 8.51042 5.32292 7.73958 7.53125 7.03125C9.76042 6.32292 12.1042 5.65625 14.5625 5.03125C17.0208 4.38542 19.375 3.875 21.625 3.5C23.3542 3.20833 25.125 3.0625 26.9375 3.0625C29.9583 3.0625 31.9375 3.14583 32.875 3.3125C34.2917 3.58333 35.625 4.02083 36.875 4.625C38.1458 5.22917 39.2708 6.04167 40.25 7.0625C41.25 8.0625 42.0625 9.25 42.6875 10.625C42.9375 11.1875 43.0625 11.7812 43.0625 12.4062C43.0625 14.7396 41.7812 17.6146 39.2188 21.0312C36.6771 24.4479 34.1146 27.4271 31.5312 29.9688C28.9688 32.5104 27.0521 34.3333 25.7812 35.4375L31.4062 55.1562L23.2188 61.0625L8.875 20.0938C8.83333 20.0938 8.63542 20.2917 8.28125 20.6875C7.92708 21.0833 7.45833 21.6042 6.875 22.25C6.3125 22.875 5.95833 23.2604 5.8125 23.4062C5.75 23.4062 5.54167 22.9583 5.1875 22.0625C4.85417 21.1667 4.39583 19.9271 3.8125 18.3438C3.25 16.7396 2.61458 14.9688 1.90625 13.0312C1.17708 11.0729 0.6875 9.84375 0.4375 9.34375ZM20.6562 18.0312L23.2188 27.25C24.5104 25.9375 26.1146 24.1458 28.0312 21.875C29.9479 19.6042 30.9062 17.9583 30.9062 16.9375C30.9062 16.5417 30.7396 16.3125 30.4062 16.25C29.4688 16.0417 28.5417 15.9375 27.625 15.9375C24.875 15.9375 22.5521 16.6354 20.6562 18.0312ZM66.5312 25.1562C68.0104 25.9479 69.2083 27.0208 70.125 28.375C71.0625 29.7083 71.7396 31.2188 72.1562 32.9062C72.5938 34.5729 72.8125 36.3125 72.8125 38.125C72.8125 39.625 72.6875 41.0729 72.4375 42.4688C72.2083 43.8646 71.8854 45.1458 71.4688 46.3125C71.0521 47.4792 70.5625 48.4688 70 49.2812C68.6875 51.2396 67.2812 52.9271 65.7812 54.3438C64.2812 55.7604 62.75 56.9062 61.1875 57.7812C59.625 58.6354 58.0729 59.2604 56.5312 59.6562C55.0104 60.0729 53.5 60.2812 52 60.2812C50.2292 60.2812 48.5417 60 46.9375 59.4375C45.3542 58.8958 44 58.1771 42.875 57.2812C41.0208 55.7396 39.5729 53.6667 38.5312 51.0625C37.4896 48.4375 36.9688 45.6667 36.9688 42.75C36.9688 37.7292 38.4167 33.6771 41.3125 30.5938C43.7917 27.9479 46.3542 25.9583 49 24.625C51.6458 23.2708 54.3542 22.5938 57.125 22.5938C58.75 22.5938 60.3125 22.8021 61.8125 23.2188C63.3125 23.6146 64.8854 24.2604 66.5312 25.1562ZM64.6875 30.4062C64.3333 31.9896 63.5625 33.3854 62.375 34.5938C61.2083 35.8021 60.0625 36.4062 58.9375 36.4062C58.375 36.4062 57.875 36.2604 57.4375 35.9688C56.8125 35.4688 56.5 34.5938 56.5 33.3438C56.5 32.3854 56.8125 31.4375 57.4375 30.5C58.0833 29.5625 59.0938 28.8229 60.4688 28.2812C59.0938 28.2812 57.7604 28.5417 56.4688 29.0625C55.1979 29.5833 54.1042 30.2604 53.1875 31.0938C52.2708 31.9062 51.5312 32.8333 50.9688 33.875C50.4271 34.8958 50.1562 35.9271 50.1562 36.9688C50.1562 38.9062 51.0521 40.4479 52.8438 41.5938C54.5104 42.6562 56.0938 43.1875 57.5938 43.1875C59.0729 43.1875 60.3854 42.6979 61.5312 41.7188C62.6771 40.7188 63.5521 39.4479 64.1562 37.9062C64.7604 36.3438 65.0625 34.8021 65.0625 33.2812C65.0625 32.2396 64.9375 31.2812 64.6875 30.4062ZM67.625 6.78125L83.5 0.125L85.8125 36.2188L98.875 29.0625L112.438 31.0938L94.75 44.6562L111.406 57.2188L112.156 69.75L87.5938 52.0938L88.375 67.4375L73.5 67.7188L70.6875 13.4375L66.0938 14.4688L67.625 6.78125ZM134.188 41.7188L141.719 50.8125C141.115 52.5625 139.677 54.1667 137.406 55.625C135.156 57.0833 132.469 58.2292 129.344 59.0625C126.24 59.9167 123.135 60.3438 120.031 60.3438C117.281 60.3438 114.823 59.9792 112.656 59.25C110.51 58.5208 108.854 57.4167 107.688 55.9375C105.667 53.3958 104.656 50.1458 104.656 46.1875C104.656 43.0625 105.219 39.9896 106.344 36.9688C107.49 33.9271 108.698 31.8021 109.969 30.5938C111.49 29.1562 113.135 27.9583 114.906 27C116.698 26.0417 118.552 25.3229 120.469 24.8438C122.385 24.3646 124.354 24.125 126.375 24.125C129.021 24.125 131.531 24.5521 133.906 25.4062C136.302 26.2396 138.396 27.4583 140.188 29.0625L123.031 49.5312C124.552 49.5312 125.99 49.2188 127.344 48.5938C128.719 47.9479 129.979 47.0417 131.125 45.875C132.271 44.6875 133.292 43.3021 134.188 41.7188ZM125.531 34.4375C124.51 33.9167 123.469 33.6562 122.406 33.6562C121.281 33.6562 120.188 33.8854 119.125 34.3438C118.083 34.8021 117.344 35.3438 116.906 35.9688C115.615 37.6354 114.969 39.4688 114.969 41.4688C114.969 42.1979 115.042 42.8958 115.188 43.5625C115.333 44.2292 115.583 45.1458 115.938 46.3125L125.531 34.4375ZM165.656 23.1562C171.052 21.4479 175.062 20.5938 177.688 20.5938C179.771 20.5938 181.562 21.0208 183.062 21.875C184.917 22.9375 186.917 24.75 189.062 27.3125C191.208 29.875 192.542 32.25 193.062 34.4375C194.167 38.875 194.719 42.75 194.719 46.0625C194.719 47.8125 194.604 49.6562 194.375 51.5938C194.146 53.5104 193.792 55.9792 193.312 59L180.25 59.7812C180.292 58.7396 180.312 57.2396 180.312 55.2812C180.312 47.1146 179.188 40.1667 176.938 34.4375C176.521 33.4167 176.031 32.6146 175.469 32.0312C174.906 31.4479 174.406 31.1562 173.969 31.1562C173.51 31.1562 173.281 31.4792 173.281 32.125C173.281 32.5 173.323 32.8229 173.406 33.0938C173.552 33.4271 173.698 33.875 173.844 34.4375C174.969 38.9583 175.531 42.8333 175.531 46.0625C175.531 47.6458 175.427 49.3125 175.219 51.0625C175.01 52.7917 174.646 55.4375 174.125 59L161.062 59.7812C161.104 58.7396 161.125 57.2396 161.125 55.2812C161.125 47.0938 159.99 40.1458 157.719 34.4375C157.448 33.7708 157.24 33.0729 157.094 32.3438C156.948 31.5938 156.844 31.2188 156.781 31.2188C156.698 31.2188 156.458 31.7083 156.062 32.6875C155.667 33.6667 155.24 34.6771 154.781 35.7188C154.469 36.4479 154.208 37.2812 154 38.2188C153.812 39.1562 153.667 40.2083 153.562 41.375C153.479 42.5417 153.438 43.9167 153.438 45.5C153.438 48.7083 153.625 52.7812 154 57.7188L138.656 59.5C138.406 57.6667 138.177 55.8438 137.969 54.0312C137.76 52.2188 137.594 50.5417 137.469 49C137.365 47.4375 137.312 45.7604 137.312 43.9688C137.312 43.1979 137.354 42.0833 137.438 40.625L136.875 22.4062L149.156 20.8438L150.938 22.9062C154.229 21.8438 156.917 21.3125 159 21.3125C161.312 21.3125 163.531 21.9271 165.656 23.1562ZM220.156 25.1562C221.635 25.9479 222.833 27.0208 223.75 28.375C224.688 29.7083 225.365 31.2188 225.781 32.9062C226.219 34.5729 226.438 36.3125 226.438 38.125C226.438 39.625 226.312 41.0729 226.062 42.4688C225.833 43.8646 225.51 45.1458 225.094 46.3125C224.677 47.4792 224.188 48.4688 223.625 49.2812C222.312 51.2396 220.906 52.9271 219.406 54.3438C217.906 55.7604 216.375 56.9062 214.812 57.7812C213.25 58.6354 211.698 59.2604 210.156 59.6562C208.635 60.0729 207.125 60.2812 205.625 60.2812C203.854 60.2812 202.167 60 200.562 59.4375C198.979 58.8958 197.625 58.1771 196.5 57.2812C194.646 55.7396 193.198 53.6667 192.156 51.0625C191.115 48.4375 190.594 45.6667 190.594 42.75C190.594 37.7292 192.042 33.6771 194.938 30.5938C197.417 27.9479 199.979 25.9583 202.625 24.625C205.271 23.2708 207.979 22.5938 210.75 22.5938C212.375 22.5938 213.938 22.8021 215.438 23.2188C216.938 23.6146 218.51 24.2604 220.156 25.1562ZM218.312 30.4062C217.958 31.9896 217.188 33.3854 216 34.5938C214.833 35.8021 213.688 36.4062 212.562 36.4062C212 36.4062 211.5 36.2604 211.062 35.9688C210.438 35.4688 210.125 34.5938 210.125 33.3438C210.125 32.3854 210.438 31.4375 211.062 30.5C211.708 29.5625 212.719 28.8229 214.094 28.2812C212.719 28.2812 211.385 28.5417 210.094 29.0625C208.823 29.5833 207.729 30.2604 206.812 31.0938C205.896 31.9062 205.156 32.8333 204.594 33.875C204.052 34.8958 203.781 35.9271 203.781 36.9688C203.781 38.9062 204.677 40.4479 206.469 41.5938C208.135 42.6562 209.719 43.1875 211.219 43.1875C212.698 43.1875 214.01 42.6979 215.156 41.7188C216.302 40.7188 217.177 39.4479 217.781 37.9062C218.385 36.3438 218.688 34.8021 218.688 33.2812C218.688 32.2396 218.562 31.2812 218.312 30.4062ZM237.375 22.9062C239.688 22.1354 241.677 21.5521 243.344 21.1562C245.01 20.7396 246.604 20.5312 248.125 20.5312C250.167 20.5312 251.958 20.9792 253.5 21.875C255.354 22.9375 257.354 24.75 259.5 27.3125C261.646 29.875 262.979 32.25 263.5 34.4375C264.604 38.875 265.156 42.75 265.156 46.0625C265.156 47.8125 265.042 49.6562 264.812 51.5938C264.583 53.5104 264.229 55.9792 263.75 59L250.688 59.7812C250.729 58.7396 250.75 57.2396 250.75 55.2812C250.75 47.1146 249.625 40.1667 247.375 34.4375C246.5 32.2917 245.646 31.2188 244.812 31.2188C243.729 31.2188 242.531 32.7188 241.219 35.7188C240.906 36.4479 240.646 37.2812 240.438 38.2188C240.25 39.1562 240.104 40.2083 240 41.375C239.917 42.5417 239.875 43.9167 239.875 45.5C239.875 48.7083 240.062 52.7812 240.438 57.7188L225.094 59.5C224.844 57.6667 224.615 55.8438 224.406 54.0312C224.198 52.2188 224.031 50.5417 223.906 49C223.802 47.4375 223.75 45.7604 223.75 43.9688C223.75 43.1979 223.792 42.0833 223.875 40.625L223.312 22.4062L235.594 20.8438L237.375 22.9062ZM267.375 45.9375C268.854 45.9375 270.125 46.1875 271.188 46.6875C272.271 47.1667 273.156 47.7604 273.844 48.4688C274.531 49.1562 275 49.7604 275.25 50.2812C275.5 50.8646 275.625 51.4896 275.625 52.1562C275.625 53.1771 275.406 54.2083 274.969 55.25C274.531 56.2708 273.99 57.1771 273.344 57.9688C272.719 58.7396 272.135 59.1667 271.594 59.25C270.469 59.4167 269.656 59.5 269.156 59.5C267.094 59.5 265.438 58.9688 264.188 57.9062C262.958 56.8229 262.229 55.3542 262 53.5C262 51.7083 262.427 50.0417 263.281 48.5C264.156 46.9583 265.521 46.1042 267.375 45.9375Z" fill="white"/>
<path d="M0.4375 9.34375L-1.44574 3.64696L-8.03068 5.8238L-4.92906 12.027L0.4375 9.34375ZM7.53125 7.03125L5.71423 1.31299L5.70646 1.31547L5.69868 1.31796L7.53125 7.03125ZM14.5625 5.03125L16.0409 10.8463L16.064 10.8404L16.087 10.8343L14.5625 5.03125ZM21.625 3.5L22.6114 9.41837L22.623 9.41643L21.625 3.5ZM32.875 3.3125L34.0017 -2.58077L33.9635 -2.58807L33.9252 -2.59488L32.875 3.3125ZM36.875 4.625L34.264 10.0271L34.2814 10.0355L34.2988 10.0438L36.875 4.625ZM40.25 7.0625L35.9199 11.2159L35.9632 11.261L36.0074 11.3051L40.25 7.0625ZM42.6875 10.625L48.1704 8.18817L48.1601 8.16513L48.1497 8.14218L42.6875 10.625ZM39.2188 21.0312L34.4188 17.4312L34.4117 17.4406L34.4047 17.4501L39.2188 21.0312ZM31.5312 29.9688L27.3232 25.6918L27.3146 25.7003L27.306 25.7088L31.5312 29.9688ZM25.7812 35.4375L21.846 30.9083L18.9642 33.4122L20.0114 37.0834L25.7812 35.4375ZM31.4062 55.1562L34.9165 60.0223L38.331 57.5591L37.1761 53.5103L31.4062 55.1562ZM23.2188 61.0625L17.5558 63.0452L20.2114 70.6301L26.729 65.9285L23.2188 61.0625ZM8.875 20.0938L14.5379 18.1111L13.1314 14.0938H8.875V20.0938ZM6.875 22.25L2.42238 18.2283L2.41524 18.2362L6.875 22.25ZM5.8125 23.4062V29.4062H8.29778L10.0551 27.6489L5.8125 23.4062ZM5.1875 22.0625L-0.435831 24.1549L-0.414623 24.2119L-0.392264 24.2685L5.1875 22.0625ZM3.8125 18.3438L-1.8495 20.3291L-1.83388 20.3737L-1.81756 20.418L3.8125 18.3438ZM1.90625 13.0312L7.54146 10.9711L7.53534 10.9543L7.52913 10.9376L1.90625 13.0312ZM20.6562 18.0312L17.0989 13.1996L13.7675 15.6523L14.8754 19.6381L20.6562 18.0312ZM23.2188 27.25L17.4379 28.8569L20.2169 38.8543L27.4952 31.4586L23.2188 27.25ZM30.4062 16.25L29.1047 22.1071L29.2023 22.1288L29.3005 22.1472L30.4062 16.25ZM2.32074 15.0405C4.82706 14.212 7.1746 13.4467 9.36382 12.7445L5.69868 1.31796C3.47123 2.03242 1.08961 2.80883 -1.44574 3.64696L2.32074 15.0405ZM9.34827 12.7495C11.4566 12.0796 13.6869 11.4447 16.0409 10.8463L13.0841 -0.783761C10.5214 -0.132223 8.06419 0.566278 5.71423 1.31299L9.34827 12.7495ZM16.087 10.8343C18.3876 10.23 20.5615 9.76001 22.6114 9.41836L20.6386 -2.41836C18.1885 -2.01001 15.6541 -1.45912 13.038 -0.771834L16.087 10.8343ZM22.623 9.41643C24.0115 9.18221 25.4482 9.0625 26.9375 9.0625V-2.9375C24.8018 -2.9375 22.6968 -2.76554 20.627 -2.41643L22.623 9.41643ZM26.9375 9.0625C28.4024 9.0625 29.5609 9.08288 30.4351 9.11969C30.8711 9.13805 31.2102 9.15943 31.4642 9.1812C31.733 9.20425 31.8361 9.22188 31.8248 9.21988L33.9252 -2.59488C32.3727 -2.87088 29.8462 -2.9375 26.9375 -2.9375V9.0625ZM31.7483 9.20577C32.671 9.38216 33.5033 9.65941 34.264 10.0271L39.486 -0.777094C37.7467 -1.61774 35.9124 -2.21549 34.0017 -2.58077L31.7483 9.20577ZM34.2988 10.0438C34.9097 10.3342 35.4412 10.7168 35.9199 11.2159L44.5801 2.90915C43.1005 1.36656 41.382 0.124128 39.4512 -0.793804L34.2988 10.0438ZM36.0074 11.3051C36.4649 11.7627 36.8776 12.3429 37.2253 13.1078L48.1497 8.14218C47.2474 6.15706 46.0351 4.36232 44.4926 2.81986L36.0074 11.3051ZM37.2046 13.0618C37.1608 12.9632 37.1231 12.8501 37.0975 12.7283C37.0718 12.6066 37.0625 12.4966 37.0625 12.4062H49.0625C49.0625 10.955 48.7667 9.52985 48.1704 8.18817L37.2046 13.0618ZM37.0625 12.4062C37.0625 12.7407 36.7668 14.3005 34.4188 17.4312L44.0187 24.6313C46.7957 20.9287 49.0625 16.7384 49.0625 12.4062H37.0625ZM34.4047 17.4501C32.016 20.6611 29.6529 23.3996 27.3232 25.6918L35.7393 34.2457C38.5762 31.4545 41.3382 28.2347 44.0328 24.6124L34.4047 17.4501ZM27.306 25.7088C24.7565 28.2375 22.9579 29.9422 21.846 30.9083L29.7165 39.9667C31.1463 38.7244 33.181 36.7833 35.7565 34.2287L27.306 25.7088ZM20.0114 37.0834L25.6364 56.8022L37.1761 53.5103L31.5511 33.7916L20.0114 37.0834ZM27.896 50.2902L19.7085 56.1965L26.729 65.9285L34.9165 60.0223L27.896 50.2902ZM28.8817 59.0798L14.5379 18.1111L3.21205 22.0764L17.5558 63.0452L28.8817 59.0798ZM8.875 14.0938C7.78415 14.0938 6.96559 14.3923 6.61662 14.5334C6.20498 14.6998 5.89396 14.8788 5.71668 14.9874C5.36409 15.2035 5.10654 15.4114 4.99316 15.5051C4.74487 15.7102 4.54849 15.9037 4.45267 15.9995C4.2341 16.2181 4.00791 16.4653 3.8098 16.6867L12.7527 24.6883C12.9088 24.5139 12.9586 24.4642 12.938 24.4848C12.9276 24.4952 12.9 24.5226 12.8587 24.5612C12.8215 24.5959 12.7437 24.6675 12.6357 24.7566C12.5523 24.8255 12.3198 25.0149 11.9874 25.2186C11.8202 25.3211 11.5181 25.4954 11.1141 25.6587C10.7728 25.7967 9.96064 26.0938 8.875 26.0938V14.0938ZM3.8098 16.6867C3.46456 17.0726 3.00284 17.5856 2.42238 18.2283L11.3276 26.2717C11.9138 25.6227 12.3896 25.0941 12.7527 24.6883L3.8098 16.6867ZM2.41524 18.2362C2.14064 18.5413 1.92684 18.7769 1.76953 18.9481C1.69086 19.0337 1.63256 19.0964 1.59174 19.1398C1.5445 19.19 1.54298 19.1905 1.56986 19.1636L10.0551 27.6489C10.3382 27.3658 10.8131 26.8434 11.3348 26.2638L2.41524 18.2362ZM5.8125 17.4062C7.54785 17.4062 8.75034 18.146 9.21847 18.4707C9.75776 18.8447 10.1124 19.2244 10.2782 19.4121C10.6174 19.7959 10.8196 20.13 10.8727 20.2177C11.0096 20.4443 11.0753 20.595 11.0497 20.5399C11.022 20.4804 10.9334 20.2769 10.7673 19.8565L-0.392264 24.2685C-0.204283 24.7439 -0.0116174 25.2123 0.169048 25.6007C0.247611 25.7696 0.39921 26.0883 0.603889 26.4268C0.690812 26.5705 0.922344 26.9467 1.28625 27.3584C1.46446 27.5601 1.83029 27.9503 2.37968 28.3313C2.85789 28.663 4.06934 29.4062 5.8125 29.4062V17.4062ZM10.8108 19.9701C10.4808 19.0832 10.0251 17.8506 9.44256 16.2695L-1.81756 20.418C-1.2334 22.0036 -0.772491 23.2501 -0.435831 24.1549L10.8108 19.9701ZM9.4745 16.3584C8.90163 14.7246 8.25705 12.9284 7.54146 10.9711L-3.72896 15.0914C-3.02789 17.0091 -2.40163 18.7545 -1.8495 20.3291L9.4745 16.3584ZM7.52913 10.9376C6.83679 9.07821 6.22894 7.51023 5.80406 6.66047L-4.92906 12.027C-4.94341 11.9983 -4.91917 12.0455 -4.84667 12.215C-4.78009 12.3706 -4.69255 12.5831 -4.58192 12.8608C-4.36054 13.4166 -4.07332 14.1669 -3.71663 15.1249L7.52913 10.9376ZM14.8754 19.6381L17.4379 28.8569L28.9996 25.6431L26.4371 16.4244L14.8754 19.6381ZM27.4952 31.4586C28.9385 29.992 30.6529 28.0712 32.6164 25.745L23.4461 18.005C21.5763 20.2204 20.0824 21.883 18.9423 23.0414L27.4952 31.4586ZM32.6164 25.745C33.6895 24.4736 34.6499 23.1978 35.3726 21.9566C35.9955 20.8868 36.9062 19.0805 36.9062 16.9375H24.9062C24.9062 16.2899 25.05 15.875 25.0801 15.7911C25.1175 15.6871 25.1167 15.7222 25.0024 15.9184C24.7668 16.323 24.2897 17.0056 23.4461 18.005L32.6164 25.745ZM36.9062 16.9375C36.9062 15.9613 36.7069 14.4154 35.6337 12.9397C34.4773 11.3498 32.8694 10.6073 31.512 10.3528L29.3005 22.1472C28.2764 21.9552 26.9185 21.3586 25.9288 19.9978C25.0223 18.7513 24.9062 17.5179 24.9062 16.9375H36.9062ZM31.7078 10.3929C30.3633 10.0941 28.9998 9.9375 27.625 9.9375V21.9375C28.0836 21.9375 28.5742 21.9892 29.1047 22.1071L31.7078 10.3929ZM27.625 9.9375C23.8176 9.9375 20.1914 10.9226 17.0989 13.1996L24.2136 22.8629C24.9127 22.3482 25.9324 21.9375 27.625 21.9375V9.9375ZM66.5312 25.1562L63.6628 30.4262L63.6814 30.4363L63.7 30.4462L66.5312 25.1562ZM70.125 28.375L65.1563 31.7384L65.1862 31.7825L65.2168 31.8261L70.125 28.375ZM72.1562 32.9062L66.3312 34.3445L66.3417 34.3872L66.3529 34.4296L72.1562 32.9062ZM72.4375 42.4688L66.5315 41.411L66.5238 41.4538L66.5168 41.4967L72.4375 42.4688ZM70 49.2812L65.0668 45.866L65.0411 45.9032L65.0159 45.9408L70 49.2812ZM61.1875 57.7812L64.0655 63.0459L64.0924 63.0312L64.1191 63.0163L61.1875 57.7812ZM56.5312 59.6562L55.0391 53.8448L54.9924 53.8568L54.9458 53.8695L56.5312 59.6562ZM46.9375 59.4375L48.9229 53.7755L48.9013 53.7679L48.8796 53.7605L46.9375 59.4375ZM42.875 57.2812L39.039 61.8948L39.0878 61.9354L39.1374 61.9749L42.875 57.2812ZM38.5312 51.0625L32.9543 53.2756L32.9573 53.2832L32.9604 53.2908L38.5312 51.0625ZM41.3125 30.5938L45.686 34.7013L45.6908 34.6962L41.3125 30.5938ZM49 24.625L51.7001 29.9831L51.7169 29.9746L51.7336 29.9661L49 24.625ZM61.8125 23.2188L60.2066 28.9999L60.244 29.0102L60.2816 29.0202L61.8125 23.2188ZM64.6875 30.4062L70.4566 28.7579L58.8322 29.0965L64.6875 30.4062ZM62.375 34.5938L58.0956 30.3882L58.077 30.4071L58.0586 30.4262L62.375 34.5938ZM57.4375 35.9688L53.6893 40.654L53.8927 40.8166L54.1093 40.9611L57.4375 35.9688ZM57.4375 30.5L52.4965 27.0962L52.4705 27.1338L52.4452 27.1718L57.4375 30.5ZM60.4688 28.2812L62.6679 33.8637L60.4688 22.2812V28.2812ZM56.4688 29.0625L54.2249 23.4979L54.2092 23.5042L54.1934 23.5107L56.4688 29.0625ZM53.1875 31.0938L57.1673 35.5838L57.1956 35.5588L57.2235 35.5334L53.1875 31.0938ZM50.9688 33.875L45.6893 31.0241L45.6789 31.0434L45.6687 31.0627L50.9688 33.875ZM52.8438 41.5938L49.6111 46.6485L49.6184 46.6531L52.8438 41.5938ZM61.5312 41.7188L65.4292 46.2801L65.4529 46.2598L65.4765 46.2393L61.5312 41.7188ZM64.1562 37.9062L69.7426 40.0955L69.7476 40.0828L69.7525 40.0701L64.1562 37.9062ZM63.7 30.4462C64.3441 30.791 64.7998 31.2118 65.1563 31.7384L75.0937 25.0116C73.6168 22.8299 71.6767 21.1049 69.3625 19.8663L63.7 30.4462ZM65.2168 31.8261C65.6988 32.5116 66.0808 33.3306 66.3312 34.3445L77.9813 31.468C77.3983 29.1069 76.4262 26.9051 75.0332 24.9239L65.2168 31.8261ZM66.3529 34.4296C66.6532 35.5739 66.8125 36.8 66.8125 38.125H78.8125C78.8125 35.825 78.5343 33.5719 77.9596 31.3829L66.3529 34.4296ZM66.8125 38.125C66.8125 39.2906 66.7155 40.3837 66.5315 41.411L78.3435 43.5265C78.6595 41.7621 78.8125 39.9594 78.8125 38.125H66.8125ZM66.5168 41.4967C66.338 42.5855 66.098 43.5114 65.8183 44.2945L77.1192 48.3305C77.6729 46.7803 78.0787 45.1437 78.3582 43.4408L66.5168 41.4967ZM65.8183 44.2945C65.5359 45.0852 65.2657 45.5788 65.0668 45.866L74.9332 52.6965C75.8593 51.3587 76.5683 49.8731 77.1192 48.3305L65.8183 44.2945ZM65.0159 45.9408C63.9179 47.579 62.7939 48.9122 61.6615 49.9817L69.901 58.7058C71.7686 56.942 73.4571 54.9001 74.9841 52.6217L65.0159 45.9408ZM61.6615 49.9817C60.4671 51.1098 59.3286 51.9455 58.2559 52.5462L64.1191 63.0163C66.1714 61.867 68.0954 60.4111 69.901 58.7058L61.6615 49.9817ZM58.3095 52.5166C57.1334 53.1595 56.0446 53.5866 55.0391 53.8448L58.0234 65.4677C60.1012 64.9343 62.1166 64.1114 64.0655 63.0459L58.3095 52.5166ZM54.9458 53.8695C53.9151 54.1519 52.9376 54.2812 52 54.2812V66.2812C54.0624 66.2812 56.1057 65.9939 58.1167 65.443L54.9458 53.8695ZM52 54.2812C50.8768 54.2812 49.8627 54.105 48.9229 53.7755L44.9521 65.0995C47.2207 65.895 49.5816 66.2812 52 66.2812V54.2812ZM48.8796 53.7605C47.8423 53.4056 47.1198 52.9915 46.6126 52.5876L39.1374 61.9749C40.8802 63.3627 42.866 64.386 44.9954 65.1145L48.8796 53.7605ZM46.711 52.6677C45.7413 51.8614 44.8338 50.6633 44.1021 48.8342L32.9604 53.2908C34.3121 56.67 36.3003 59.6177 39.039 61.8948L46.711 52.6677ZM44.1082 48.8494C43.3552 46.9519 42.9688 44.9342 42.9688 42.75H30.9688C30.9688 46.3992 31.6239 49.9231 32.9543 53.2756L44.1082 48.8494ZM42.9688 42.75C42.9688 38.9519 44.0258 36.469 45.686 34.7013L36.939 26.4862C32.8075 30.8851 30.9688 36.5065 30.9688 42.75H42.9688ZM45.6908 34.6962C47.7927 32.453 49.806 30.9376 51.7001 29.9831L46.2999 19.2669C42.9023 20.979 39.7906 23.4428 36.9342 26.4913L45.6908 34.6962ZM51.7336 29.9661C53.5963 29.0127 55.373 28.5938 57.125 28.5938V16.5938C53.3353 16.5938 49.6954 17.5289 46.2664 19.2839L51.7336 29.9661ZM57.125 28.5938C58.2311 28.5938 59.252 28.7347 60.2066 28.9999L63.4184 17.4376C61.373 16.8695 59.2689 16.5938 57.125 16.5938V28.5938ZM60.2816 29.0202C61.2316 29.2708 62.3556 29.7146 63.6628 30.4262L69.3997 19.8863C67.4152 18.8062 65.3934 17.9583 63.3434 17.4173L60.2816 29.0202ZM58.8322 29.0965C58.7337 29.5367 58.5341 29.942 58.0956 30.3882L66.6544 38.7993C68.5909 36.8289 69.9329 34.4424 70.5428 31.716L58.8322 29.0965ZM58.0586 30.4262C57.7936 30.7006 57.7131 30.7138 57.8422 30.6457C58.0005 30.5622 58.3863 30.4062 58.9375 30.4062V42.4062C62.3456 42.4062 64.949 40.566 66.6914 38.7613L58.0586 30.4262ZM58.9375 30.4062C59.4728 30.4062 60.1478 30.5645 60.7657 30.9764L54.1093 40.9611C55.6022 41.9563 57.2772 42.4062 58.9375 42.4062V30.4062ZM61.1857 31.2835C61.8744 31.8346 62.2279 32.4802 62.3848 32.9195C62.5244 33.3103 62.5 33.5033 62.5 33.3438H50.5C50.5 35.3844 50.994 38.4977 53.6893 40.654L61.1857 31.2835ZM62.5 33.3438C62.5 33.529 62.4679 33.6858 62.4327 33.7926C62.3998 33.8925 62.3789 33.9045 62.4298 33.8282L52.4452 27.1718C51.2811 28.918 50.5 31.0048 50.5 33.3438H62.5ZM62.3785 33.9038C62.2834 34.0419 62.2074 34.0956 62.2235 34.0838C62.2476 34.0662 62.3752 33.979 62.6679 33.8637L58.2696 22.6988C56.1121 23.5487 53.9948 24.9212 52.4965 27.0962L62.3785 33.9038ZM60.4688 22.2812C58.3147 22.2812 56.2203 22.6933 54.2249 23.4979L58.7126 34.6271C59.3005 34.3901 59.8728 34.2812 60.4688 34.2812V22.2812ZM54.1934 23.5107C52.3453 24.2681 50.6389 25.3019 49.1515 26.6541L57.2235 35.5334C57.5695 35.2189 58.0505 34.8986 58.7441 34.6143L54.1934 23.5107ZM49.2077 26.6037C47.7837 27.8658 46.5972 29.3428 45.6893 31.0241L56.2482 36.7259C56.4653 36.3239 56.758 35.9467 57.1673 35.5838L49.2077 26.6037ZM45.6687 31.0627C44.7186 32.8533 44.1562 34.8429 44.1562 36.9688H56.1562C56.1562 36.9687 56.1563 36.9687 56.1562 36.9687C56.1562 36.9687 56.1562 36.9688 56.1562 36.9688C56.1562 36.9687 56.1563 36.9686 56.1563 36.9683C56.1563 36.968 56.1564 36.9675 56.1565 36.9668C56.1568 36.9644 56.1581 36.9553 56.1626 36.9381C56.1711 36.9055 56.1968 36.823 56.2688 36.6873L45.6687 31.0627ZM44.1562 36.9688C44.1562 41.1799 46.2956 44.5281 49.6111 46.6484L56.0764 36.5391C55.9509 36.4588 55.9064 36.4133 55.9106 36.4175C55.9174 36.4243 55.9627 36.4721 56.0159 36.5636C56.0701 36.657 56.1107 36.7582 56.1347 36.8515C56.158 36.9421 56.1562 36.9878 56.1562 36.9688H44.1562ZM49.6184 46.6531C51.9488 48.1387 54.6409 49.1875 57.5938 49.1875V37.1875C57.5466 37.1875 57.0721 37.1738 56.0691 36.5344L49.6184 46.6531ZM57.5938 49.1875C60.5315 49.1875 63.2194 48.1685 65.4292 46.2801L57.6333 37.1574C57.59 37.1944 57.5662 37.2088 57.5633 37.2106C57.5615 37.2117 57.5633 37.2105 57.5686 37.2079C57.574 37.2053 57.5815 37.2021 57.5905 37.1987C57.5996 37.1953 57.6087 37.1924 57.6173 37.1901C57.6258 37.1878 57.6321 37.1865 57.6355 37.1859C57.6433 37.1845 57.6312 37.1875 57.5938 37.1875V49.1875ZM65.4765 46.2393C67.4118 44.5503 68.8185 42.4534 69.7426 40.0955L58.5699 35.717C58.2856 36.4424 57.9423 36.8872 57.586 37.1982L65.4765 46.2393ZM69.7525 40.0701C70.5964 37.8875 71.0625 35.6137 71.0625 33.2812H59.0625C59.0625 33.9905 58.9244 34.8 58.56 35.7424L69.7525 40.0701ZM71.0625 33.2812C71.0625 31.761 70.8801 30.2399 70.4566 28.7579L58.9184 32.0546C58.9949 32.3226 59.0625 32.7182 59.0625 33.2812H71.0625ZM67.625 6.78125L65.3049 1.24796L62.3636 2.48122L61.7406 5.60915L67.625 6.78125ZM83.5 0.125L89.4877 -0.258629L88.9491 -8.66583L81.1799 -5.40829L83.5 0.125ZM85.8125 36.2188L79.8248 36.6024L80.4275 46.0103L88.6953 41.4808L85.8125 36.2188ZM98.875 29.0625L99.7637 23.1287L97.7648 22.8293L95.9922 23.8004L98.875 29.0625ZM112.438 31.0938L116.088 35.8551L127.306 27.2537L113.326 25.1599L112.438 31.0938ZM94.75 44.6562L91.0991 39.8949L84.8381 44.6957L91.1371 49.4465L94.75 44.6562ZM111.406 57.2188L117.396 56.8603L117.23 54.096L115.019 52.4285L111.406 57.2188ZM112.156 69.75L108.654 74.6219L118.899 81.9864L118.146 69.3915L112.156 69.75ZM87.5938 52.0938L91.0958 47.2218L80.9672 39.9411L81.6015 52.3989L87.5938 52.0938ZM88.375 67.4375L88.4884 73.4364L94.6823 73.3193L94.3672 67.1324L88.375 67.4375ZM73.5 67.7188L67.508 68.0292L67.8085 73.8274L73.6134 73.7177L73.5 67.7188ZM70.6875 13.4375L76.6795 13.127L76.3115 6.02564L69.3733 7.5832L70.6875 13.4375ZM66.0938 14.4688L60.2093 13.2967L58.4073 22.3436L67.408 20.323L66.0938 14.4688ZM69.9451 12.3145L85.8201 5.65829L81.1799 -5.40829L65.3049 1.24796L69.9451 12.3145ZM77.5123 0.508629L79.8248 36.6024L91.8002 35.8351L89.4877 -0.258629L77.5123 0.508629ZM88.6953 41.4808L101.758 34.3246L95.9922 23.8004L82.9297 30.9567L88.6953 41.4808ZM97.9863 34.9963L111.549 37.0276L113.326 25.1599L99.7637 23.1287L97.9863 34.9963ZM108.787 26.3324L91.0991 39.8949L98.4009 49.4176L116.088 35.8551L108.787 26.3324ZM91.1371 49.4465L107.793 62.009L115.019 52.4285L98.3629 39.866L91.1371 49.4465ZM105.417 57.5772L106.167 70.1085L118.146 69.3915L117.396 56.8603L105.417 57.5772ZM115.658 64.8781L91.0958 47.2218L84.0917 56.9657L108.654 74.6219L115.658 64.8781ZM81.6015 52.3989L82.3828 67.7426L94.3672 67.1324L93.586 51.7886L81.6015 52.3989ZM88.2616 61.4386L73.3866 61.7198L73.6134 73.7177L88.4884 73.4364L88.2616 61.4386ZM79.492 67.4083L76.6795 13.127L64.6955 13.748L67.508 68.0292L79.492 67.4083ZM69.3733 7.5832L64.7795 8.61445L67.408 20.323L72.0017 19.2918L69.3733 7.5832ZM71.9782 15.6408L73.5094 7.95335L61.7406 5.60915L60.2093 13.2967L71.9782 15.6408ZM134.188 41.7188L138.809 37.8917L133.254 31.1846L128.965 38.7641L134.188 41.7188ZM141.719 50.8125L147.39 52.7705L148.491 49.5828L146.34 46.9855L141.719 50.8125ZM137.406 55.625L134.164 50.5764L134.153 50.5832L134.143 50.5901L137.406 55.625ZM129.344 59.0625L127.798 53.2651L127.775 53.2712L127.752 53.2775L129.344 59.0625ZM112.656 59.25L110.726 64.931L110.734 64.9338L110.742 64.9366L112.656 59.25ZM107.688 55.9375L112.398 52.2218L112.391 52.2126L112.384 52.2034L107.688 55.9375ZM106.344 36.9688L100.729 34.8536L100.725 34.8642L100.721 34.8748L106.344 36.9688ZM109.969 30.5938L105.847 26.2333L105.841 26.2394L105.834 26.2455L109.969 30.5938ZM114.906 27L112.076 21.7093L112.063 21.7162L112.051 21.7232L114.906 27ZM133.906 25.4062L131.876 31.0522L131.905 31.0629L131.935 31.0732L133.906 25.4062ZM140.188 29.0625L144.786 32.9167L148.516 28.4661L144.19 24.5924L140.188 29.0625ZM123.031 49.5312L118.433 45.677L110.173 55.5312H123.031V49.5312ZM127.344 48.5938L129.858 54.0415L129.876 54.0331L129.895 54.0245L127.344 48.5938ZM131.125 45.875L135.406 50.0792L135.424 50.0603L135.443 50.0412L131.125 45.875ZM125.531 34.4375L130.198 38.2081L134.847 32.4545L128.258 29.0929L125.531 34.4375ZM119.125 34.3438L116.748 28.8345L116.728 28.8431L116.709 28.8519L119.125 34.3438ZM116.906 35.9688L121.649 39.6442L121.738 39.529L121.822 39.4095L116.906 35.9688ZM115.188 43.5625L109.326 44.8447L115.188 43.5625ZM115.938 46.3125L110.196 48.0554L113.486 58.8939L120.605 50.0831L115.938 46.3125ZM129.566 45.5458L137.098 54.6395L146.34 46.9855L138.809 37.8917L129.566 45.5458ZM136.047 48.8545C136.044 48.863 135.803 49.524 134.164 50.5764L140.648 60.6736C143.551 58.8093 146.185 56.262 147.39 52.7705L136.047 48.8545ZM134.143 50.5901C132.518 51.6434 130.435 52.5618 127.798 53.2651L130.89 64.8599C134.502 63.8966 137.795 62.5233 140.67 60.6599L134.143 50.5901ZM127.752 53.2775C125.147 53.9943 122.578 54.3438 120.031 54.3438V66.3438C123.693 66.3438 127.332 65.839 130.936 64.8475L127.752 53.2775ZM120.031 54.3438C117.804 54.3438 116.009 54.0478 114.57 53.5634L110.742 64.9366C113.636 65.9105 116.758 66.3438 120.031 66.3438V54.3438ZM114.587 53.569C113.313 53.1362 112.713 52.6208 112.398 52.2218L102.977 59.6532C104.995 62.2126 107.708 63.9055 110.726 64.931L114.587 53.569ZM112.384 52.2034C111.38 50.9405 110.656 49.0958 110.656 46.1875H98.6562C98.6562 51.1959 99.9535 55.8512 102.991 59.6716L112.384 52.2034ZM110.656 46.1875C110.656 43.7999 111.083 41.4351 111.966 39.0627L100.721 34.8748C99.3545 38.5441 98.6562 42.3251 98.6562 46.1875H110.656ZM111.959 39.0839C113.013 36.2853 113.834 35.1982 114.103 34.942L105.834 26.2455C103.562 28.4059 101.966 31.5689 100.729 34.8536L111.959 39.0839ZM114.09 34.9542C115.246 33.8618 116.469 32.9766 117.762 32.2768L112.051 21.7232C109.802 22.9401 107.733 24.4507 105.847 26.2333L114.09 34.9542ZM117.736 32.2907C119.106 31.5583 120.499 31.0208 121.924 30.6646L119.014 19.0229C116.605 19.625 114.29 20.5251 112.076 21.7093L117.736 32.2907ZM121.924 30.6646C123.354 30.3071 124.833 30.125 126.375 30.125V18.125C123.875 18.125 121.417 18.422 119.014 19.0229L121.924 30.6646ZM126.375 30.125C128.362 30.125 130.183 30.4435 131.876 31.0522L135.937 19.7603C132.879 18.6607 129.679 18.125 126.375 18.125V30.125ZM131.935 31.0732C133.623 31.6604 135.017 32.4865 136.185 33.5326L144.19 24.5924C141.775 22.4302 138.981 20.8188 135.877 19.7393L131.935 31.0732ZM135.589 25.2083L118.433 45.677L127.63 53.3855L144.786 32.9167L135.589 25.2083ZM123.031 55.5312C125.403 55.5312 127.7 55.0377 129.858 54.0415L124.829 43.146C124.279 43.3998 123.702 43.5312 123.031 43.5312V55.5312ZM129.895 54.0245C131.962 53.0534 133.799 51.7152 135.406 50.0792L126.844 41.6708C126.159 42.3681 125.475 42.8425 124.793 43.163L129.895 54.0245ZM135.443 50.0412C136.974 48.4546 138.29 46.6526 139.41 44.6734L128.965 38.7641C128.294 39.9516 127.568 40.9204 126.807 41.7088L135.443 50.0412ZM128.258 29.0929C126.461 28.1759 124.49 27.6562 122.406 27.6562V39.6562C122.447 39.6562 122.56 39.6574 122.804 39.7821L128.258 29.0929ZM122.406 27.6562C120.44 27.6562 118.539 28.0619 116.748 28.8345L121.502 39.853C121.836 39.7089 122.122 39.6562 122.406 39.6562V27.6562ZM116.709 28.8519C115.122 29.5498 113.295 30.6654 111.991 32.528L121.822 39.4095C121.596 39.7316 121.391 39.8927 121.334 39.9343C121.28 39.9739 121.328 39.9295 121.541 39.8356L116.709 28.8519ZM112.164 32.2933C110.104 34.9506 108.969 38.0626 108.969 41.4688H120.969C120.969 40.8749 121.125 40.3203 121.649 39.6442L112.164 32.2933ZM108.969 41.4688C108.969 42.5998 109.082 43.7292 109.326 44.8447L121.049 42.2803C121.001 42.0625 120.969 41.7961 120.969 41.4688H108.969ZM109.326 44.8447C109.522 45.7417 109.826 46.8348 110.196 48.0554L121.679 44.5696C121.341 43.4569 121.144 42.7166 121.049 42.2803L109.326 44.8447ZM120.605 50.0831L130.198 38.2081L120.864 30.6669L111.27 42.5419L120.605 50.0831ZM165.656 23.1562L162.652 28.35L164.944 29.6754L167.467 28.8764L165.656 23.1562ZM183.062 21.875L186.046 16.6691L186.039 16.6651L186.032 16.6611L183.062 21.875ZM193.062 34.4375L187.226 35.8272L187.233 35.8568L187.24 35.8863L193.062 34.4375ZM194.375 51.5938L200.333 52.3061L200.333 52.2985L194.375 51.5938ZM193.312 59L193.671 64.9893L198.483 64.7015L199.238 59.94L193.312 59ZM180.25 59.7812L174.255 59.5414L173.99 66.1664L180.608 65.7705L180.25 59.7812ZM176.938 34.4375L182.522 32.2442L182.508 32.2071L182.493 32.1701L176.938 34.4375ZM173.406 33.0938L167.672 34.8583L167.772 35.1852L167.909 35.4987L173.406 33.0938ZM173.844 34.4375L179.666 32.9886L179.659 32.9601L179.652 32.9317L173.844 34.4375ZM175.219 51.0625L181.176 51.7802L181.177 51.7718L175.219 51.0625ZM174.125 59L174.483 64.9893L179.356 64.6979L180.062 59.868L174.125 59ZM161.062 59.7812L155.067 59.5414L154.802 66.1664L161.421 65.7705L161.062 59.7812ZM157.719 34.4375L163.294 32.2197L163.286 32.1994L163.278 32.1792L157.719 34.4375ZM157.094 32.3438L151.204 33.489L151.207 33.5047L151.21 33.5204L157.094 32.3438ZM154.781 35.7188L149.289 33.3023L149.278 33.3287L149.266 33.3552L154.781 35.7188ZM154 38.2188L148.143 36.9172L148.129 36.9795L148.117 37.0421L154 38.2188ZM153.562 41.375L147.586 40.8414L147.582 40.8944L147.578 40.9475L153.562 41.375ZM154 57.7188L154.692 63.6787L160.419 63.0138L159.983 57.2644L154 57.7188ZM138.656 59.5L132.711 60.3107L133.506 66.1382L139.348 65.46L138.656 59.5ZM137.469 49L131.482 49.3991L131.485 49.442L131.488 49.4849L137.469 49ZM137.438 40.625L143.428 40.9673L143.443 40.7037L143.435 40.4398L137.438 40.625ZM136.875 22.4062L136.118 16.4542L130.71 17.1423L130.878 22.5914L136.875 22.4062ZM149.156 20.8438L153.697 16.922L151.593 14.4854L148.399 14.8917L149.156 20.8438ZM150.938 22.9062L146.397 26.828L148.996 29.8378L152.781 28.6162L150.938 22.9062ZM167.467 28.8764C172.793 27.1902 176.051 26.5938 177.688 26.5938V14.5938C174.074 14.5938 169.311 15.7056 163.845 17.4361L167.467 28.8764ZM177.688 26.5938C178.945 26.5938 179.668 26.8468 180.093 27.0889L186.032 16.6611C183.457 15.1949 180.597 14.5938 177.688 14.5938V26.5938ZM180.079 27.0809C181.073 27.65 182.544 28.874 184.462 31.1646L193.663 23.4604C191.289 20.626 188.761 18.225 186.046 16.6691L180.079 27.0809ZM184.462 31.1646C186.278 33.3323 187 34.878 187.226 35.8272L198.899 33.0478C198.084 29.622 196.139 26.4177 193.663 23.4604L184.462 31.1646ZM187.24 35.8863C188.267 40.0153 188.719 43.3836 188.719 46.0625H200.719C200.719 42.1164 200.066 37.7347 198.885 32.9887L187.24 35.8863ZM188.719 46.0625C188.719 47.552 188.621 49.1592 188.417 50.889L200.333 52.2985C200.587 50.1533 200.719 48.073 200.719 46.0625H188.719ZM188.417 50.8814C188.201 52.6915 187.86 55.0768 187.387 58.06L199.238 59.94C199.724 56.8816 200.091 54.3293 200.333 52.3061L188.417 50.8814ZM192.954 53.0107L179.892 53.792L180.608 65.7705L193.671 64.9893L192.954 53.0107ZM186.245 60.0211C186.292 58.8582 186.312 57.2633 186.312 55.2812H174.312C174.312 57.2159 174.292 58.621 174.255 59.5414L186.245 60.0211ZM186.312 55.2812C186.312 46.5956 185.12 38.8594 182.522 32.2442L171.353 36.6308C173.255 41.474 174.312 47.6336 174.312 55.2812H186.312ZM182.493 32.1701C181.885 30.6823 181.032 29.157 179.788 27.8664L171.15 36.1961C171.083 36.1265 171.085 36.1119 171.136 36.1963C171.188 36.281 171.275 36.4423 171.382 36.7049L182.493 32.1701ZM179.788 27.8664C178.967 27.0157 176.967 25.1562 173.969 25.1562V37.1562C172.835 37.1562 172.029 36.7793 171.649 36.5577C171.274 36.3393 171.111 36.1562 171.15 36.1961L179.788 27.8664ZM173.969 25.1562C172.147 25.1562 169.989 25.9124 168.56 27.926C167.399 29.5616 167.281 31.2746 167.281 32.125H179.281C179.281 32.3296 179.278 33.5582 178.346 34.8709C177.831 35.5966 177.11 36.2289 176.219 36.6476C175.359 37.0515 174.557 37.1562 173.969 37.1562V25.1562ZM167.281 32.125C167.281 32.917 167.366 33.8652 167.672 34.8583L179.141 31.3292C179.28 31.7806 179.281 32.083 179.281 32.125H167.281ZM167.909 35.4987C167.885 35.4433 167.891 35.4481 167.92 35.5372C167.947 35.6219 167.987 35.7542 168.036 35.9433L179.652 32.9317C179.467 32.2201 179.228 31.4322 178.903 30.6888L167.909 35.4987ZM168.021 35.8864C169.076 40.1227 169.531 43.4845 169.531 46.0625H181.531C181.531 42.1822 180.862 37.794 179.666 32.9886L168.021 35.8864ZM169.531 46.0625C169.531 47.384 169.444 48.8127 169.261 50.3532L181.177 51.7718C181.41 49.8123 181.531 47.9076 181.531 46.0625H169.531ZM169.262 50.3448C169.063 51.995 168.708 54.5787 168.188 58.132L180.062 59.868C180.584 56.2963 180.958 53.5884 181.176 51.7802L169.262 50.3448ZM173.767 53.0107L160.704 53.792L161.421 65.7705L174.483 64.9893L173.767 53.0107ZM167.058 60.0211C167.104 58.8582 167.125 57.2633 167.125 55.2812H155.125C155.125 57.2159 155.104 58.621 155.067 59.5414L167.058 60.0211ZM167.125 55.2812C167.125 46.5726 165.922 38.8258 163.294 32.2197L152.144 36.6553C154.057 41.4659 155.125 47.6149 155.125 55.2812H167.125ZM163.278 32.1792C163.153 31.8735 163.052 31.5386 162.977 31.1671L151.21 33.5204C151.428 34.6072 151.742 35.6681 152.16 36.6958L163.278 32.1792ZM162.983 31.1985C162.903 30.7858 162.805 30.3166 162.687 29.8941C162.639 29.7202 162.522 29.3099 162.319 28.8522C162.232 28.656 161.99 28.1276 161.543 27.5527C161.344 27.2974 159.771 25.2188 156.781 25.2188V37.2188C155.231 37.2188 154.062 36.63 153.378 36.1563C152.713 35.696 152.29 35.202 152.071 34.92C151.642 34.3685 151.419 33.8753 151.353 33.7259C151.259 33.5145 151.202 33.3494 151.177 33.2743C151.149 33.1888 151.131 33.1286 151.125 33.1059C151.112 33.0584 151.138 33.1517 151.204 33.489L162.983 31.1985ZM156.781 25.2188C155.325 25.2188 154.248 25.7394 153.696 26.068C153.118 26.4119 152.718 26.781 152.5 26.9991C152.069 27.4302 151.793 27.8364 151.681 28.007C151.427 28.3913 151.244 28.7556 151.15 28.9486C150.934 29.3893 150.712 29.9151 150.5 30.4388L161.625 34.9362C161.711 34.723 161.782 34.5552 161.837 34.4273C161.864 34.364 161.886 34.3151 161.903 34.2788C161.911 34.2609 161.917 34.2473 161.922 34.2376C161.924 34.2329 161.925 34.2293 161.927 34.2268C161.928 34.2243 161.928 34.2232 161.928 34.2233C161.928 34.2233 161.928 34.2249 161.926 34.2278C161.925 34.2307 161.922 34.2353 161.919 34.2414C161.913 34.2531 161.903 34.2735 161.888 34.301C161.863 34.3453 161.799 34.4611 161.698 34.6141C161.626 34.7235 161.386 35.0838 160.985 35.4843C160.783 35.6871 160.397 36.0447 159.832 36.3809C159.292 36.7019 158.227 37.2188 156.781 37.2188V25.2188ZM150.5 30.4388C150.128 31.3576 149.725 32.312 149.289 33.3023L160.273 38.1352C160.754 37.0422 161.205 35.9758 161.625 34.9362L150.5 30.4388ZM149.266 33.3552C148.78 34.4895 148.416 35.6889 148.143 36.9172L159.857 39.5203C160.001 38.8736 160.157 38.4063 160.296 38.0823L149.266 33.3552ZM148.117 37.0421C147.878 38.233 147.706 39.5049 147.586 40.8414L159.539 41.9086C159.628 40.9118 159.747 40.0795 159.883 39.3954L148.117 37.0421ZM147.578 40.9475C147.481 42.296 147.438 43.8202 147.438 45.5H159.438C159.438 44.0132 159.477 42.7873 159.547 41.8025L147.578 40.9475ZM147.438 45.5C147.438 48.9179 147.636 53.156 148.017 58.1731L159.983 57.2644C159.614 52.4065 159.438 48.4988 159.438 45.5H147.438ZM153.308 51.7588L137.964 53.54L139.348 65.46L154.692 63.6787L153.308 51.7588ZM144.601 58.6893C144.357 56.8972 144.133 55.1161 143.93 53.3461L132.008 54.7164C132.221 56.5714 132.456 58.4361 132.711 60.3107L144.601 58.6893ZM143.93 53.3461C143.728 51.5888 143.568 49.9794 143.449 48.5151L131.488 49.4849C131.62 51.104 131.793 52.8487 132.008 54.7164L143.93 53.3461ZM143.455 48.6009C143.361 47.1885 143.312 45.6458 143.312 43.9688H131.312C131.312 45.875 131.368 47.6865 131.482 49.3991L143.455 48.6009ZM143.312 43.9688C143.312 43.3718 143.346 42.3931 143.428 40.9673L131.447 40.2827C131.362 41.7736 131.312 43.024 131.312 43.9688H143.312ZM143.435 40.4398L142.872 22.2211L130.878 22.5914L131.44 40.8102L143.435 40.4398ZM137.632 28.3583L149.914 26.7958L148.399 14.8917L136.118 16.4542L137.632 28.3583ZM144.615 24.7655L146.397 26.828L155.478 18.9845L153.697 16.922L144.615 24.7655ZM152.781 28.6162C155.815 27.6367 157.819 27.3125 159 27.3125V15.3125C156.014 15.3125 152.643 16.0508 149.094 17.1963L152.781 28.6162ZM159 27.3125C160.192 27.3125 161.382 27.6152 162.652 28.35L168.66 17.9625C165.681 16.2389 162.433 15.3125 159 15.3125V27.3125ZM220.156 25.1562L217.288 30.4262L217.306 30.4363L217.325 30.4462L220.156 25.1562ZM223.75 28.375L218.781 31.7384L218.811 31.7825L218.842 31.8261L223.75 28.375ZM225.781 32.9062L219.956 34.3445L219.967 34.3872L219.978 34.4296L225.781 32.9062ZM226.062 42.4688L220.156 41.411L220.149 41.4538L220.142 41.4967L226.062 42.4688ZM223.625 49.2812L218.692 45.866L218.666 45.9032L218.641 45.9408L223.625 49.2812ZM214.812 57.7812L217.691 63.0459L217.717 63.0312L217.744 63.0163L214.812 57.7812ZM210.156 59.6562L208.664 53.8448L208.617 53.8568L208.571 53.8695L210.156 59.6562ZM200.562 59.4375L202.548 53.7755L202.526 53.7679L202.505 53.7605L200.562 59.4375ZM196.5 57.2812L192.664 61.8948L192.713 61.9354L192.762 61.9749L196.5 57.2812ZM192.156 51.0625L186.579 53.2756L186.582 53.2832L186.585 53.2908L192.156 51.0625ZM194.938 30.5938L199.311 34.7013L199.316 34.6962L194.938 30.5938ZM202.625 24.625L205.325 29.9831L205.342 29.9746L205.359 29.9661L202.625 24.625ZM215.438 23.2188L213.832 28.9999L213.869 29.0102L213.907 29.0202L215.438 23.2188ZM218.312 30.4062L224.082 28.7579L212.457 29.0965L218.312 30.4062ZM216 34.5938L211.721 30.3882L211.702 30.4071L211.684 30.4262L216 34.5938ZM211.062 35.9688L207.314 40.654L207.518 40.8166L207.734 40.9611L211.062 35.9688ZM211.062 30.5L206.121 27.0962L206.096 27.1338L206.07 27.1718L211.062 30.5ZM214.094 28.2812L216.293 33.8637L214.094 22.2812V28.2812ZM210.094 29.0625L207.85 23.4979L207.834 23.5042L207.818 23.5107L210.094 29.0625ZM206.812 31.0938L210.792 35.5838L210.821 35.5588L210.849 35.5334L206.812 31.0938ZM204.594 33.875L199.314 31.0241L199.304 31.0434L199.294 31.0627L204.594 33.875ZM206.469 41.5938L203.236 46.6485L203.243 46.6531L206.469 41.5938ZM215.156 41.7188L219.054 46.2801L219.078 46.2598L219.101 46.2393L215.156 41.7188ZM217.781 37.9062L223.368 40.0955L223.373 40.0828L223.377 40.0701L217.781 37.9062ZM217.325 30.4462C217.969 30.791 218.425 31.2118 218.781 31.7384L228.719 25.0116C227.242 22.8299 225.302 21.1049 222.988 19.8663L217.325 30.4462ZM218.842 31.8261C219.324 32.5116 219.706 33.3306 219.956 34.3445L231.606 31.468C231.023 29.1069 230.051 26.9051 228.658 24.9239L218.842 31.8261ZM219.978 34.4296C220.278 35.5739 220.438 36.8 220.438 38.125H232.438C232.438 35.825 232.159 33.5719 231.585 31.3829L219.978 34.4296ZM220.438 38.125C220.438 39.2906 220.34 40.3837 220.156 41.411L231.969 43.5265C232.285 41.7621 232.438 39.9594 232.438 38.125H220.438ZM220.142 41.4967C219.963 42.5855 219.723 43.5114 219.443 44.2945L230.744 48.3305C231.298 46.7803 231.704 45.1437 231.983 43.4408L220.142 41.4967ZM219.443 44.2945C219.161 45.0852 218.891 45.5788 218.692 45.866L228.558 52.6965C229.484 51.3587 230.193 49.8731 230.744 48.3305L219.443 44.2945ZM218.641 45.9408C217.543 47.579 216.419 48.9122 215.287 49.9817L223.526 58.7058C225.394 56.942 227.082 54.9001 228.609 52.6217L218.641 45.9408ZM215.287 49.9817C214.092 51.1098 212.954 51.9455 211.881 52.5462L217.744 63.0163C219.796 61.867 221.72 60.4111 223.526 58.7058L215.287 49.9817ZM211.934 52.5166C210.758 53.1595 209.67 53.5866 208.664 53.8448L211.648 65.4677C213.726 64.9343 215.742 64.1114 217.691 63.0459L211.934 52.5166ZM208.571 53.8695C207.54 54.1519 206.563 54.2812 205.625 54.2812V66.2812C207.687 66.2812 209.731 65.9939 211.742 65.443L208.571 53.8695ZM205.625 54.2812C204.502 54.2812 203.488 54.105 202.548 53.7755L198.577 65.0995C200.846 65.895 203.207 66.2812 205.625 66.2812V54.2812ZM202.505 53.7605C201.467 53.4056 200.745 52.9915 200.238 52.5876L192.762 61.9749C194.505 63.3627 196.491 64.386 198.62 65.1145L202.505 53.7605ZM200.336 52.6677C199.366 51.8614 198.459 50.6633 197.727 48.8342L186.585 53.2908C187.937 56.67 189.925 59.6177 192.664 61.8948L200.336 52.6677ZM197.733 48.8494C196.98 46.9519 196.594 44.9342 196.594 42.75H184.594C184.594 46.3992 185.249 49.9231 186.579 53.2756L197.733 48.8494ZM196.594 42.75C196.594 38.9519 197.651 36.469 199.311 34.7013L190.564 26.4862C186.433 30.8851 184.594 36.5065 184.594 42.75H196.594ZM199.316 34.6962C201.418 32.453 203.431 30.9376 205.325 29.9831L199.925 19.2669C196.527 20.979 193.416 23.4428 190.559 26.4913L199.316 34.6962ZM205.359 29.9661C207.221 29.0127 208.998 28.5938 210.75 28.5938V16.5938C206.96 16.5938 203.32 17.5289 199.891 19.2839L205.359 29.9661ZM210.75 28.5938C211.856 28.5938 212.877 28.7347 213.832 28.9999L217.043 17.4376C214.998 16.8695 212.894 16.5938 210.75 16.5938V28.5938ZM213.907 29.0202C214.857 29.2708 215.981 29.7146 217.288 30.4262L223.025 19.8863C221.04 18.8062 219.018 17.9583 216.968 17.4173L213.907 29.0202ZM212.457 29.0965C212.359 29.5367 212.159 29.942 211.721 30.3882L220.279 38.7993C222.216 36.8289 223.558 34.4424 224.168 31.716L212.457 29.0965ZM211.684 30.4262C211.419 30.7006 211.338 30.7138 211.467 30.6457C211.625 30.5622 212.011 30.4062 212.562 30.4062V42.4062C215.971 42.4062 218.574 40.566 220.316 38.7613L211.684 30.4262ZM212.562 30.4062C213.098 30.4062 213.773 30.5645 214.391 30.9764L207.734 40.9611C209.227 41.9563 210.902 42.4062 212.562 42.4062V30.4062ZM214.811 31.2835C215.499 31.8346 215.853 32.4802 216.01 32.9195C216.149 33.3103 216.125 33.5033 216.125 33.3438H204.125C204.125 35.3844 204.619 38.4977 207.314 40.654L214.811 31.2835ZM216.125 33.3438C216.125 33.529 216.093 33.6858 216.058 33.7926C216.025 33.8925 216.004 33.9045 216.055 33.8282L206.07 27.1718C204.906 28.918 204.125 31.0048 204.125 33.3438H216.125ZM216.004 33.9038C215.908 34.0419 215.832 34.0956 215.849 34.0838C215.873 34.0662 216 33.979 216.293 33.8637L211.895 22.6988C209.737 23.5487 207.62 24.9212 206.121 27.0962L216.004 33.9038ZM214.094 22.2812C211.94 22.2812 209.845 22.6933 207.85 23.4979L212.338 34.6271C212.926 34.3901 213.498 34.2812 214.094 34.2812V22.2812ZM207.818 23.5107C205.97 24.2681 204.264 25.3019 202.776 26.6541L210.849 35.5334C211.194 35.2189 211.676 34.8986 212.369 34.6143L207.818 23.5107ZM202.833 26.6037C201.409 27.8658 200.222 29.3428 199.314 31.0241L209.873 36.7259C210.09 36.3239 210.383 35.9467 210.792 35.5838L202.833 26.6037ZM199.294 31.0627C198.344 32.8533 197.781 34.8429 197.781 36.9688H209.781C209.781 36.9687 209.781 36.9687 209.781 36.9687C209.781 36.9687 209.781 36.9688 209.781 36.9688C209.781 36.9687 209.781 36.9686 209.781 36.9683C209.781 36.968 209.781 36.9675 209.781 36.9668C209.782 36.9644 209.783 36.9553 209.788 36.9381C209.796 36.9055 209.822 36.823 209.894 36.6873L199.294 31.0627ZM197.781 36.9688C197.781 41.1799 199.921 44.5281 203.236 46.6484L209.701 36.5391C209.576 36.4588 209.531 36.4133 209.536 36.4175C209.542 36.4243 209.588 36.4721 209.641 36.5636C209.695 36.657 209.736 36.7582 209.76 36.8515C209.783 36.9421 209.781 36.9878 209.781 36.9688H197.781ZM203.243 46.6531C205.574 48.1387 208.266 49.1875 211.219 49.1875V37.1875C211.172 37.1875 210.697 37.1738 209.694 36.5344L203.243 46.6531ZM211.219 49.1875C214.157 49.1875 216.844 48.1685 219.054 46.2801L211.258 37.1574C211.215 37.1944 211.191 37.2088 211.188 37.2106C211.186 37.2117 211.188 37.2105 211.194 37.2079C211.199 37.2053 211.206 37.2021 211.216 37.1987C211.225 37.1953 211.234 37.1924 211.242 37.1901C211.251 37.1878 211.257 37.1865 211.26 37.1859C211.268 37.1845 211.256 37.1875 211.219 37.1875V49.1875ZM219.101 46.2393C221.037 44.5503 222.444 42.4534 223.368 40.0955L212.195 35.717C211.911 36.4424 211.567 36.8872 211.211 37.1982L219.101 46.2393ZM223.377 40.0701C224.221 37.8875 224.688 35.6137 224.688 33.2812H212.688C212.688 33.9905 212.549 34.8 212.185 35.7424L223.377 40.0701ZM224.688 33.2812C224.688 31.761 224.505 30.2399 224.082 28.7579L212.543 32.0546C212.62 32.3226 212.688 32.7182 212.688 33.2812H224.688ZM237.375 22.9062L232.834 26.828L235.46 29.869L239.272 28.5983L237.375 22.9062ZM243.344 21.1562L244.73 26.9939L244.765 26.9857L244.799 26.9771L243.344 21.1562ZM253.5 21.875L250.485 27.0628L250.501 27.0719L250.517 27.0809L253.5 21.875ZM263.5 34.4375L257.663 35.8272L257.67 35.8568L257.678 35.8863L263.5 34.4375ZM264.812 51.5938L270.77 52.3061L270.771 52.2985L264.812 51.5938ZM263.75 59L264.108 64.9893L268.921 64.7015L269.676 59.94L263.75 59ZM250.688 59.7812L244.692 59.5414L244.427 66.1664L251.046 65.7705L250.688 59.7812ZM247.375 34.4375L252.96 32.2442L252.946 32.208L252.931 32.172L247.375 34.4375ZM241.219 35.7188L235.722 33.3138L235.713 33.3345L235.704 33.3552L241.219 35.7188ZM240.438 38.2188L234.58 36.9172L234.567 36.9795L234.554 37.0421L240.438 38.2188ZM240 41.375L234.024 40.8414L234.019 40.8944L234.015 40.9475L240 41.375ZM240.438 57.7188L241.129 63.6787L246.857 63.0138L246.42 57.2644L240.438 57.7188ZM225.094 59.5L219.149 60.3107L219.943 66.1382L225.786 65.46L225.094 59.5ZM223.906 49L217.92 49.3991L217.922 49.442L217.926 49.4849L223.906 49ZM223.875 40.625L229.865 40.9673L229.88 40.7037L229.872 40.4398L223.875 40.625ZM223.312 22.4062L222.555 16.4542L217.147 17.1423L217.315 22.5914L223.312 22.4062ZM235.594 20.8438L240.135 16.922L238.03 14.4854L234.836 14.8917L235.594 20.8438ZM239.272 28.5983C241.481 27.8622 243.291 27.3357 244.73 26.9939L241.957 15.3186C240.063 15.7685 237.894 16.4086 235.478 17.2142L239.272 28.5983ZM244.799 26.9771C246.05 26.6643 247.153 26.5312 248.125 26.5312V14.5312C246.055 14.5312 243.971 14.8148 241.889 15.3354L244.799 26.9771ZM248.125 26.5312C249.264 26.5312 249.985 26.7722 250.485 27.0628L256.515 16.6872C253.931 15.1861 251.07 14.5312 248.125 14.5312V26.5312ZM250.517 27.0809C251.51 27.65 252.982 28.874 254.9 31.1646L264.1 23.4604C261.727 20.626 259.198 18.225 256.483 16.6691L250.517 27.0809ZM254.9 31.1646C256.715 33.3323 257.437 34.878 257.663 35.8272L269.337 33.0478C268.521 29.622 266.577 26.4177 264.1 23.4604L254.9 31.1646ZM257.678 35.8863C258.705 40.0153 259.156 43.3836 259.156 46.0625H271.156C271.156 42.1164 270.503 37.7347 269.322 32.9887L257.678 35.8863ZM259.156 46.0625C259.156 47.552 259.059 49.1592 258.854 50.889L270.771 52.2985C271.025 50.1533 271.156 48.073 271.156 46.0625H259.156ZM258.855 50.8814C258.639 52.6915 258.297 55.0768 257.824 58.06L269.676 59.94C270.161 56.8816 270.528 54.3293 270.77 52.3061L258.855 50.8814ZM263.392 53.0107L250.329 53.792L251.046 65.7705L264.108 64.9893L263.392 53.0107ZM256.683 60.0211C256.729 58.8582 256.75 57.2633 256.75 55.2812H244.75C244.75 57.2159 244.729 58.621 244.692 59.5414L256.683 60.0211ZM256.75 55.2812C256.75 46.5956 255.558 38.8594 252.96 32.2442L241.79 36.6308C243.692 41.474 244.75 47.6336 244.75 55.2812H256.75ZM252.931 32.172C252.404 30.8807 251.717 29.4727 250.772 28.2864C249.932 27.2306 247.968 25.2188 244.812 25.2188V37.2188C243.67 37.2188 242.779 36.8374 242.222 36.4832C241.706 36.1548 241.442 35.8334 241.384 35.7605C241.294 35.6471 241.471 35.8485 241.819 36.703L252.931 32.172ZM244.812 25.2188C241.431 25.2188 239.313 27.4729 238.413 28.5996C237.337 29.9467 236.463 31.6205 235.722 33.3138L246.716 38.1237C246.986 37.5057 247.223 37.0292 247.421 36.6731C247.625 36.3081 247.753 36.1347 247.79 36.0879C247.842 36.0225 247.684 36.2444 247.275 36.5133C246.835 36.8025 245.984 37.2188 244.812 37.2188V25.2188ZM235.704 33.3552C235.218 34.4895 234.853 35.6889 234.58 36.9172L246.295 39.5203C246.438 38.8736 246.595 38.4063 246.734 38.0823L235.704 33.3552ZM234.554 37.0421C234.316 38.233 234.143 39.5049 234.024 40.8414L245.976 41.9086C246.065 40.9118 246.184 40.0795 246.321 39.3954L234.554 37.0421ZM234.015 40.9475C233.919 42.296 233.875 43.8202 233.875 45.5H245.875C245.875 44.0132 245.914 42.7873 245.985 41.8025L234.015 40.9475ZM233.875 45.5C233.875 48.9179 234.074 53.156 234.455 58.1731L246.42 57.2644C246.051 52.4065 245.875 48.4988 245.875 45.5H233.875ZM239.746 51.7588L224.402 53.54L225.786 65.46L241.129 63.6787L239.746 51.7588ZM231.039 58.6893C230.794 56.8972 230.57 55.1161 230.367 53.3461L218.445 54.7164C218.659 56.5714 218.893 58.4361 219.149 60.3107L231.039 58.6893ZM230.367 53.3461C230.165 51.5888 230.005 49.9794 229.887 48.5151L217.926 49.4849C218.057 51.104 218.231 52.8487 218.445 54.7164L230.367 53.3461ZM229.893 48.6009C229.799 47.1885 229.75 45.6458 229.75 43.9688H217.75C217.75 45.875 217.805 47.6865 217.92 49.3991L229.893 48.6009ZM229.75 43.9688C229.75 43.3718 229.784 42.3931 229.865 40.9673L217.885 40.2827C217.8 41.7736 217.75 43.024 217.75 43.9688H229.75ZM229.872 40.4398L229.31 22.2211L217.315 22.5914L217.878 40.8102L229.872 40.4398ZM224.07 28.3583L236.351 26.7958L234.836 14.8917L222.555 16.4542L224.07 28.3583ZM231.053 24.7655L232.834 26.828L241.916 18.9845L240.135 16.922L231.053 24.7655ZM267.375 45.9375V39.9375H267.106L266.838 39.9616L267.375 45.9375ZM271.188 46.6875L268.633 52.1164L268.696 52.1463L268.76 52.1747L271.188 46.6875ZM273.844 48.4688L269.538 52.6476L269.569 52.6797L269.601 52.7114L273.844 48.4688ZM275.25 50.2812L280.765 47.9177L280.714 47.8002L280.659 47.6849L275.25 50.2812ZM274.969 55.25L280.484 57.6135L280.492 57.5935L280.501 57.5734L274.969 55.25ZM273.344 57.9688L268.695 54.176L268.689 54.183L268.683 54.1899L273.344 57.9688ZM271.594 59.25L272.473 65.1852L272.49 65.1828L272.506 65.1802L271.594 59.25ZM264.188 57.9062L260.22 62.4075L260.261 62.4431L260.302 62.4779L264.188 57.9062ZM262 53.5H256V53.8694L256.045 54.236L262 53.5ZM263.281 48.5L258.063 45.5384L258.048 45.5652L258.033 45.5922L263.281 48.5ZM267.375 51.9375C268.193 51.9375 268.549 52.077 268.633 52.1164L273.742 41.2586C271.701 40.298 269.515 39.9375 267.375 39.9375V51.9375ZM268.76 52.1747C269.277 52.4032 269.483 52.5905 269.538 52.6476L278.149 44.2899C276.83 42.9303 275.265 41.9301 273.615 41.2003L268.76 52.1747ZM269.601 52.7114C269.812 52.9227 269.925 53.0566 269.97 53.1155C269.991 53.1425 269.987 53.1389 269.965 53.1053C269.944 53.0725 269.898 52.9961 269.841 52.8776L280.659 47.6849C279.983 46.2764 278.972 45.112 278.086 44.2261L269.601 52.7114ZM269.735 52.6448C269.696 52.553 269.666 52.4572 269.648 52.3642C269.629 52.2719 269.625 52.1999 269.625 52.1562H281.625C281.625 50.7188 281.351 49.2854 280.765 47.9177L269.735 52.6448ZM269.625 52.1562C269.625 52.298 269.598 52.5418 269.437 52.9266L280.501 57.5734C281.214 55.8748 281.625 54.0562 281.625 52.1562H269.625ZM269.454 52.8865C269.218 53.4373 268.957 53.854 268.695 54.176L277.993 61.7615C279.022 60.5002 279.845 59.1043 280.484 57.6135L269.454 52.8865ZM268.683 54.1899C268.584 54.3121 268.647 54.2064 268.893 54.026C269.14 53.8453 269.745 53.4638 270.681 53.3198L272.506 65.1802C275.324 64.7467 277.124 62.833 278.004 61.7476L268.683 54.1899ZM270.714 53.3148C270.209 53.3896 269.819 53.4391 269.528 53.4688C269.216 53.5009 269.115 53.5 269.156 53.5V65.5C270.136 65.5 271.329 65.3548 272.473 65.1852L270.714 53.3148ZM269.156 53.5C268.635 53.5 268.337 53.4324 268.2 53.3883C268.132 53.3666 268.098 53.349 268.086 53.3426C268.08 53.3391 268.077 53.337 268.076 53.3364C268.075 53.3358 268.074 53.3353 268.073 53.3346L260.302 62.4779C262.893 64.6803 266.047 65.5 269.156 65.5V53.5ZM268.155 53.405C268.124 53.3779 268.112 53.3627 268.093 53.3242C268.068 53.2745 267.998 53.1113 267.955 52.764L256.045 54.236C256.427 57.3279 257.736 60.2182 260.22 62.4075L268.155 53.405ZM268 53.5C268 52.7081 268.177 52.0443 268.53 51.4078L258.033 45.5922C256.677 48.039 256 50.7086 256 53.5H268ZM268.499 51.4616C268.504 51.4534 268.479 51.4984 268.412 51.57C268.344 51.6435 268.253 51.7213 268.144 51.7889C267.91 51.9355 267.778 51.9255 267.912 51.9134L266.838 39.9616C263.14 40.294 259.966 42.1856 258.063 45.5384L268.499 51.4616Z" fill="black" mask="url(#path-1-outside-1_85_40)"/>
</svg>
